<?xml version="1.0" encoding="UTF-8"?>
<svg version="1.1" xmlns="http://www.w3.org/2000/svg" width="500" height="500">
<path d="M0 0 C4.25797104 1.41932368 5.82932498 4.55081568 8.25 8.125 C8.98198608 9.20491211 8.98198608 9.20491211 9.72875977 10.30664062 C19.01764242 24.33431082 25.19334779 40.0266931 26 57 C26.0515625 57.64066406 26.103125 58.28132813 26.15625 58.94140625 C26.78907603 72.8372111 22.41434517 86.41081705 17 99 C16.70464355 99.69625488 16.40928711 100.39250977 16.10498047 101.10986328 C6.86772553 122.60471565 -7.34550599 140.68655365 -24 157 C2.8530065 138.54793408 19.77391801 113.0163259 29 82 C29.66 82 30.32 82 31 82 C35.92365422 103.62890961 33.71583739 127.53332389 21.84375 146.6015625 C10.28202688 164.02583849 -5.96857377 176.80926452 -23.8828125 187.1875 C-25.95988 188.39521845 -28.00086289 189.66724193 -30 191 C-7.36692159 181.55040254 10.44606523 169.59718947 24.87109375 149.43359375 C25.24363281 148.96050781 25.61617188 148.48742187 26 148 C26.33 148 26.66 148 27 148 C27.84111931 163.58407169 24.41818736 175.7986498 14.4140625 187.921875 C3.70200275 199.3132361 -9.96059539 206.25962308 -24.1875 212.1875 C-29.33882483 214.41908537 -32.84793878 217.79071877 -35 223 C-35.45275278 225.81496741 -35.45275278 225.81496741 -35.625 228.75 C-35.69976562 229.73484375 -35.77453125 230.7196875 -35.8515625 231.734375 C-35.90054688 232.48203125 -35.94953125 233.2296875 -36 234 C-51.79384724 228.11991659 -61.82611575 216.75288197 -69 202 C-73.88760677 190.4659245 -74.5403675 176.9400647 -69.9140625 165.2578125 C-64.93946214 155.10732736 -56.45795817 148.0397712 -48.0234375 140.79296875 C-40.20429508 133.86442363 -33.449614 126.19454382 -27 118 C-26.1853125 117.00226563 -25.370625 116.00453125 -24.53125 114.9765625 C-3.28575226 88.64972665 6.03434612 56.64855254 4 23 C3.36562163 17.25607064 2.21701662 11.64367811 1 6 C0.65534799 4.0019194 0.31781214 2.00252504 0 0 Z " fill="#000000" transform="translate(284,115)"/>
<path d="M0 0 C3.28547219 3.28547219 3.17351179 6.80606986 3.25 11.3125 C3.16974289 18.03626228 0.95345862 22.55505136 -2.625 28.125 C-7.81406029 36.25920261 -6.16663114 45.01638971 -4.4375 54.0703125 C-4.293125 55.03710938 -4.14875 56.00390625 -4 57 C-3.814375 57.93714844 -3.62875 58.87429687 -3.4375 59.83984375 C-4.37103903 65.0845179 -8.22602561 67.88644756 -12 71.4375 C-12.74378906 72.16259766 -13.48757812 72.88769531 -14.25390625 73.63476562 C-18.46843633 77.71369778 -22.79828057 81.63418714 -27.25512695 85.44628906 C-35.31521548 92.62334284 -39.8575234 101.48238759 -42 112 C-42.33 112 -42.66 112 -43 112 C-43.18451025 98.3667426 -43.18451025 98.3667426 -42 92 C-44.26616615 98.25461856 -45.83795007 104.45150687 -47 111 C-53.30496896 100.06606649 -51.696531 83.92602755 -48.6875 72.1875 C-46.76183382 65.87244769 -44.67556599 59.51334899 -41 54 C-50.4028923 54.19013201 -56.28047619 56.22436352 -63 62.8125 C-63.99 63.8953125 -63.99 63.8953125 -65 65 C-67.56508107 60.190473 -67.64311043 55.30780475 -67 50 C-64.92788933 45.06640318 -61.61167989 42.98259232 -57.3125 40.0625 C-52.83211205 37.16700802 -52.83211205 37.16700802 -51.1875 32.25 C-51.0946875 30.64125 -51.0946875 30.64125 -51 29 C-46.45019762 25.23863714 -41.74018002 23.81896414 -36.125 22.25 C-29.50786921 20.28302342 -23.29241758 17.98557416 -17.125 14.875 C-16.15457764 14.38821777 -16.15457764 14.38821777 -15.16455078 13.89160156 C-9.91388341 11.15296913 -5.51905414 8.19973757 -2.1875 3.25 C-1.465625 2.1775 -0.74375 1.105 0 0 Z M-41 89 C-40 91 -40 91 -40 91 Z " fill="#EB1B24" transform="translate(249,178)"/>
<path d="M0 0 C10.43865915 2.63105548 19.01120427 6.68084957 25 16 C30.61389502 28.32680653 32.34489589 40.51763946 32.25 53.9375 C32.26160156 55.57235352 32.26160156 55.57235352 32.2734375 57.24023438 C32.25608062 64.54314124 31.95143543 71.92184747 30 79 C29.01 79.495 29.01 79.495 28 80 C28.03480469 78.90945312 28.06960938 77.81890625 28.10546875 76.6953125 C28.687369 50.45102358 22.38040762 27.18631841 4.64379883 7.2746582 C2.48122779 4.84086106 1.04266049 3.12798147 0 0 Z " fill="#EB1B22" transform="translate(252,100)"/>
<path d="M0 0 C2.9355612 2.47557297 3.88635171 4.88108218 5.0625 8.5 C5.38347656 9.4590625 5.70445312 10.418125 6.03515625 11.40625 C8.51224385 20.63264917 9.31746219 29.39722184 9.25 38.9375 C9.25773437 40.02740234 9.26546875 41.11730469 9.2734375 42.24023438 C9.25608062 49.54314124 8.95143543 56.92184747 7 64 C6.01 64.495 6.01 64.495 5 65 C5.03480469 63.90945312 5.06960938 62.81890625 5.10546875 61.6953125 C5.4931045 44.21254867 2.73697636 29.11995179 -4 13 C-4.66856838 11.33409528 -5.33607276 9.66775983 -6 8 C-4 8 -4 8 -2.4375 9.125 C-0.52221707 11.62319513 -0.5122478 13.92651323 0 17 C0.99 17.99 1.98 18.98 3 20 C3 16.04 3 12.08 3 8 C2.34 8 1.68 8 1 8 C0.17361624 5.10765685 0 3.11257569 0 0 Z " fill="#DE222A" transform="translate(275,115)"/>
<path d="M0 0 C3.28547219 3.28547219 3.17351179 6.80606986 3.25 11.3125 C3.15434085 19.32661067 -0.38568373 25.60966991 -5 32 C-5.33 32 -5.66 32 -6 32 C-6.1875 29.625 -6.1875 29.625 -6 27 C-5.01 26.34 -4.02 25.68 -3 25 C-3.66 24.67 -4.32 24.34 -5 24 C-5 20.7 -5 17.4 -5 14 C-3.68 13.34 -2.36 12.68 -1 12 C-0.67 12.33 -0.34 12.66 0 13 C-0.33 11.35 -0.66 9.7 -1 8 C-1.99 8.495 -1.99 8.495 -3 9 C-3.75 7.3125 -3.75 7.3125 -4 5 C-2.0625 2.25 -2.0625 2.25 0 0 Z " fill="#DD2029" transform="translate(249,178)"/>
<path d="M0 0 C0.33 0 0.66 0 1 0 C1 5.94 1 11.88 1 18 C2.32 18 3.64 18 5 18 C5.33 17.34 5.66 16.68 6 16 C6.66 16 7.32 16 8 16 C7.57074219 17.22589844 7.57074219 17.22589844 7.1328125 18.4765625 C5.86835445 22.40946306 4.85423675 26.36375613 3.875 30.375 C3.69324219 31.11105469 3.51148438 31.84710938 3.32421875 32.60546875 C2.88064438 34.40311223 2.44001734 36.20148254 2 38 C-4.15073773 27.33353078 -2.55337626 11.5447525 0 0 Z " fill="#DB2129" transform="translate(200,251)"/>
<path d="M0 0 C9.37964907 2.36413286 16.44202087 5.82721032 23 13 C22.67 13.66 22.34 14.32 22 15 C21.34 14.34 20.68 13.68 20 13 C17.67518826 11.98034573 15.34205301 10.97940398 13 10 C12.67 9.67 12.34 9.34 12 9 C11.67 10.32 11.34 11.64 11 13 C11.66 13 12.32 13 13 13 C12.67 13.99 12.34 14.98 12 16 C10.1819528 13.90041007 8.37049966 11.79571273 6.5625 9.6875 C6.04623047 9.09259766 5.52996094 8.49769531 4.99804688 7.88476562 C4.50498047 7.30791016 4.01191406 6.73105469 3.50390625 6.13671875 C3.04830322 5.60780029 2.5927002 5.07888184 2.12329102 4.53393555 C1 3 1 3 0 0 Z " fill="#DD2029" transform="translate(252,100)"/>
<path d="M0 0 C0.33 0 0.66 0 1 0 C1.25 5.625 1.25 5.625 -1 9 C-0.67 9.99 -0.34 10.98 0 12 C0.763125 11.62875 1.52625 11.2575 2.3125 10.875 C3.199375 10.58625 4.08625 10.2975 5 10 C5.99 10.66 6.98 11.32 8 12 C7.071875 12.763125 6.14375 13.52625 5.1875 14.3125 C3.01723899 16.11848552 0.94431935 17.9476629 -1 20 C-3.55207266 15.21486377 -3.58931259 10.28648056 -3 5 C-1.5625 1.875 -1.5625 1.875 0 0 Z " fill="#DC2330" transform="translate(185,223)"/>
<path d="M0 0 C0.33 0 0.66 0 1 0 C1.0590068 4.08327061 1.09392935 8.16642882 1.125 12.25 C1.14175781 13.38953125 1.15851563 14.5290625 1.17578125 15.703125 C1.21836731 23.19827139 1.03878552 30.73514344 -1 38 C-1.99 38.495 -1.99 38.495 -3 39 C-2.505 30.09 -2.505 30.09 -2 21 C-1.67 21 -1.34 21 -1 21 C-0.67 14.07 -0.34 7.14 0 0 Z " fill="#CA363C" transform="translate(283,141)"/>
<path d="M0 0 C0.721875 0.103125 1.44375 0.20625 2.1875 0.3125 C1.81238281 0.73660156 1.43726563 1.16070312 1.05078125 1.59765625 C-1.67209853 4.71833711 -4.25333608 7.85200199 -6.625 11.25 C-7.346875 12.260625 -8.06875 13.27125 -8.8125 14.3125 C-9.1425 14.3125 -9.4725 14.3125 -9.8125 14.3125 C-10.11051336 8.94825959 -8.93037327 6.6418628 -5.5 2.5625 C-2.8125 0.3125 -2.8125 0.3125 0 0 Z " fill="#D52125" transform="translate(220.8125,260.6875)"/>
<path d="M0 0 C0.33 0 0.66 0 1 0 C1 1.98 1 3.96 1 6 C1.66 6 2.32 6 3 6 C2.54705135 7.75140143 2.08741252 9.50107344 1.625 11.25 C1.36976563 12.22453125 1.11453125 13.1990625 0.8515625 14.203125 C0.10401491 16.65837303 -0.77123817 18.75617405 -2 21 C-2.20177072 13.64657821 -2.21211746 7.05112439 0 0 Z " fill="#D3252C" transform="translate(208,269)"/>
<path d="M0 0 C0.66 0.33 1.32 0.66 2 1 C1.34 1.66 0.68 2.32 0 3 C-0.16677282 6.58343976 -0.16677282 6.58343976 0 10 C-0.66 10 -1.32 10 -2 10 C-2.33 10.99 -2.66 11.98 -3 13 C-3.99 13 -4.98 13 -6 13 C-6 13.66 -6 14.32 -6 15 C-7.75 16.6875 -7.75 16.6875 -10 18 C-12.140625 17.58203125 -12.140625 17.58203125 -14 17 C-13.21753906 16.50371094 -12.43507812 16.00742188 -11.62890625 15.49609375 C-5.97906377 12.06706322 -5.97906377 12.06706322 -2.1171875 6.98046875 C-1.88107364 4.91711764 -1.88107364 4.91711764 -2 2 C-1.34 1.34 -0.68 0.68 0 0 Z " fill="#D4262F" transform="translate(200,205)"/>
<path d="M0 0 C0.66 0.33 1.32 0.66 2 1 C0.19047409 2.83635578 -1.62240638 4.66916208 -3.4375 6.5 C-3.95376953 7.02464844 -4.47003906 7.54929688 -5.00195312 8.08984375 C-6.31576787 9.41224552 -7.65593505 10.70835568 -9 12 C-9.33 12 -9.66 12 -10 12 C-10 9.69 -10 7.38 -10 5 C-8.02 5 -6.04 5 -4 5 C-4 4.34 -4 3.68 -4 3 C-2 1.375 -2 1.375 0 0 Z " fill="#CF2129" transform="translate(237,246)"/>
<path d="M0 0 C-0.33 0.99 -0.66 1.98 -1 3 C-1.99 3.33 -2.98 3.66 -4 4 C-4.33 4.66 -4.66 5.32 -5 6 C-8.72908331 5.49800802 -12.36147686 4.95792977 -16 4 C-13.70922959 3.33011414 -11.41748541 2.66396838 -9.125 2 C-8.47402344 1.80921875 -7.82304687 1.6184375 -7.15234375 1.421875 C-2.2265625 0 -2.2265625 0 0 0 Z " fill="#DB202A" transform="translate(220,199)"/>
<path d="M0 0 C2 3 2 3 2 7 C2.66 7 3.32 7 4 7 C3.67 7.99 3.34 8.98 3 10 C1.99406757 8.8803014 0.9954151 7.7540588 0 6.625 C-0.556875 5.99851562 -1.11375 5.37203125 -1.6875 4.7265625 C-3 3 -3 3 -3 1 C-2.01 0.67 -1.02 0.34 0 0 Z " fill="#D4262E" transform="translate(261,106)"/>
<path d="M0 0 C2 3 2 3 2 5 C2.66 5 3.32 5 4 5 C3.67 7.64 3.34 10.28 3 13 C1.32889958 10.03821227 0.67317248 7.62928808 0.375 4.25 C0.30023438 3.45078125 0.22546875 2.6515625 0.1484375 1.828125 C0.09945312 1.22484375 0.05046875 0.6215625 0 0 Z " fill="#BE3036" transform="translate(199,276)"/>
<path d="M0 0 C3.44216672 2.6598561 3.99504674 5.90288286 5 10 C4.34 10 3.68 10 3 10 C3 9.34 3 8.68 3 8 C2.34 8 1.68 8 1 8 C0.17361624 5.10765685 0 3.11257569 0 0 Z " fill="#CE232E" transform="translate(275,115)"/>
<path d="M0 0 C0.33 0 0.66 0 1 0 C1 2.97 1 5.94 1 9 C0.01 9 -0.98 9 -2 9 C-2.33 7.35 -2.66 5.7 -3 4 C-2.34 3.67 -1.68 3.34 -1 3 C-0.67 2.01 -0.34 1.02 0 0 Z " fill="#E81D28" transform="translate(282,144)"/>
<path d="M0 0 C0.33 0.99 0.66 1.98 1 3 C1.66 3 2.32 3 3 3 C2.34 6.3 1.68 9.6 1 13 C0.67 13 0.34 13 0 13 C0 8.71 0 4.42 0 0 Z " fill="#BC3A3F" transform="translate(206,277)"/>
<path d="M0 0 C1.98 0.66 3.96 1.32 6 2 C5 4 5 4 3 5 C2.34 5.66 1.68 6.32 1 7 C0.34 5.02 -0.32 3.04 -1 1 C-0.67 0.67 -0.34 0.34 0 0 Z " fill="#E4161E" transform="translate(208,262)"/>
<path d="M0 0 C2 0 2 0 3.58203125 1.20703125 C5.3445157 3.43562729 5.48385785 4.87723828 5.6875 7.6875 C5.75324219 8.49574219 5.81898438 9.30398437 5.88671875 10.13671875 C5.92410156 10.75160156 5.96148437 11.36648437 6 12 C3.71540242 9.71540242 3.02870252 7.87462656 1.875 4.875 C1.52179688 3.96492188 1.16859375 3.05484375 0.8046875 2.1171875 C0.53914063 1.41851562 0.27359375 0.71984375 0 0 Z " fill="#D2262F" transform="translate(269,123)"/>
<path d="M0 0 C1.32 0.66 2.64 1.32 4 2 C1.69 3.65 -0.62 5.3 -3 7 C-3 5.68 -3 4.36 -3 3 C-2.34 3 -1.68 3 -1 3 C-0.67 2.01 -0.34 1.02 0 0 Z " fill="#D21F2A" transform="translate(189,233)"/>
<path d="M0 0 C0.33 0.66 0.66 1.32 1 2 C0.67 2.66 0.34 3.32 0 4 C0.66 4.33 1.32 4.66 2 5 C-0.70879335 6.35439668 -3.00933268 6.06501451 -6 6 C-4 4 -2 2 0 0 Z " fill="#DA202A" transform="translate(244,185)"/>
<path d="M0 0 C0.66 0.33 1.32 0.66 2 1 C1.01 2.98 0.02 4.96 -1 7 C-2.32 5.68 -3.64 4.36 -5 3 C-4.360625 2.690625 -3.72125 2.38125 -3.0625 2.0625 C-1.06389179 1.1654837 -1.06389179 1.1654837 0 0 Z " fill="#DC1F28" transform="translate(270,115)"/>
</svg>
